<svg xmlns="http://www.w3.org/2000/svg" width="512" height="512" viewBox="0 0 512 512" version="1.1">
	<path d="M 167 101.341 L 78.500 152.527 78.245 255.637 C 78.043 337.373, 78.251 358.956, 79.245 359.754 C 79.935 360.308, 119.995 383.557, 168.267 411.418 L 256.033 462.075 331.767 418.355 C 373.420 394.309, 413.450 371.230, 420.721 367.068 L 433.943 359.500 433.936 256 L 433.930 152.500 375.753 119 C 343.756 100.575, 303.708 77.513, 286.756 67.750 C 269.805 57.987, 255.838 50.035, 255.718 50.077 C 255.598 50.120, 215.675 73.188, 167 101.341 M 171.250 110.290 L 88 158.467 88 255.992 L 88 353.517 171.150 401.508 C 216.883 427.904, 255.071 449.500, 256.013 449.500 C 256.955 449.500, 295.137 427.909, 340.863 401.519 L 424 353.538 424 256.011 L 424 158.483 340.887 110.492 C 295.175 84.096, 257.037 62.413, 256.137 62.307 C 255.237 62.201, 217.037 83.793, 171.250 110.290 M 268.393 115.038 C 263.199 117.754, 233.635 134.795, 182.500 164.546 C 161.234 176.919, 159.464 178.204, 156.790 183.212 L 154.500 187.500 154.196 271 C 153.991 327.178, 154.234 355.645, 154.939 358 C 155.786 360.830, 157.245 362.233, 162.555 365.326 C 168.107 368.560, 169.540 369.005, 171.812 368.197 C 173.290 367.671, 191.309 357.512, 211.853 345.621 C 232.396 333.729, 249.554 324, 249.981 324 C 250.408 324, 251.318 325.353, 252.003 327.008 C 254.084 332.031, 260.068 337.229, 270.191 342.806 C 282.023 349.325, 285.702 350.390, 294.001 349.699 C 306.932 348.623, 320.706 341.069, 333.990 327.767 C 362.068 299.653, 375.268 254.524, 362.647 229.789 C 359.666 223.945, 359.399 222.846, 360.580 221.289 C 362.822 218.333, 362.203 215.967, 358.118 211.882 C 353.298 207.062, 348.717 206.575, 345.538 210.543 L 343.500 213.085 336.357 209.414 C 329.754 206.021, 329.169 205.458, 328.610 201.963 C 326.892 191.217, 306.974 187.089, 297.252 195.463 C 294.822 197.556, 294.515 198.485, 294.630 203.409 C 294.701 206.477, 295.436 210.017, 296.265 211.282 C 297.695 213.465, 297.601 213.691, 294.385 215.799 L 291 218.018 291 171.056 C 291 137.617, 290.667 123.363, 289.842 121.554 C 288.759 119.176, 281.130 114.107, 276.393 112.618 C 274.992 112.178, 272.313 112.988, 268.393 115.038 M 223.698 145.158 L 202.897 157.259 206.046 159.174 L 209.195 161.089 230.234 148.864 L 251.272 136.639 249.025 134.820 C 247.790 133.819, 246.266 133.013, 245.639 133.028 C 245.013 133.044, 235.139 138.502, 223.698 145.158 M 250.721 141.414 C 249.212 142.558, 249.168 142.851, 250.434 143.336 C 251.584 143.777, 252.002 146.158, 252.254 153.705 L 252.581 163.500 252.791 151.750 C 252.906 145.287, 252.887 140.014, 252.750 140.032 C 252.613 140.049, 251.699 140.671, 250.721 141.414 M 265.500 146.960 L 257.500 151.778 257 158.082 L 256.500 164.386 232.805 178.203 L 209.110 192.020 205.555 190.325 C 203.600 189.392, 201.993 188.375, 201.985 188.065 C 201.976 187.754, 201.575 186.878, 201.094 186.117 C 200.396 185.016, 198.361 185.806, 191.109 189.992 L 182 195.249 182 271.231 C 182 331.622, 182.257 347.110, 183.250 346.706 C 183.938 346.427, 198.450 338.113, 215.500 328.230 L 246.500 310.263 247.139 300.381 C 248.513 279.109, 255.343 261.076, 269.717 240.769 L 276 231.892 276 186.946 C 276 151.618, 275.733 142.015, 274.750 142.070 C 274.063 142.109, 269.900 144.309, 265.500 146.960 M 240.441 147.555 C 238.577 149.049, 238.589 149.067, 240.750 148.020 C 241.988 147.420, 243 146.720, 243 146.465 C 243 145.700, 242.481 145.921, 240.441 147.555 M 246 152.441 C 246 154.334, 246.450 156.160, 247 156.500 C 247.604 156.873, 248 155.510, 248 153.059 C 248 150.827, 247.550 149, 247 149 C 246.450 149, 246 150.548, 246 152.441 M 233.441 151.555 C 231.577 153.049, 231.589 153.067, 233.750 152.020 C 234.988 151.420, 236 150.720, 236 150.465 C 236 149.700, 235.481 149.921, 233.441 151.555 M 230 167.097 C 222.575 171.446, 216.343 175.736, 216.152 176.632 C 215.788 178.332, 215.975 178.238, 236.257 166.548 C 244.223 161.956, 246.578 159.861, 244.325 159.370 C 243.871 159.271, 237.425 162.748, 230 167.097 M 212.250 163.662 C 211.442 163.988, 211.062 165.994, 211.175 169.333 L 211.349 174.500 211.743 170.020 C 211.960 167.555, 212.612 164.968, 213.191 164.270 C 214.310 162.922, 214.224 162.866, 212.250 163.662 M 211 183.345 C 211 186.263, 211.856 186.655, 214.071 184.750 C 214.870 184.063, 215.330 183.613, 215.093 183.752 C 214.856 183.891, 213.838 183.259, 212.831 182.347 C 211.100 180.780, 211 180.835, 211 183.345 M 235.270 203.277 C 219.743 212.200, 207.031 220.036, 207.020 220.691 C 207.009 221.346, 207.435 222.151, 207.966 222.479 C 209.313 223.311, 267 189.922, 267 188.310 C 267 187.590, 266.212 187.012, 265.250 187.027 C 264.288 187.042, 250.796 194.354, 235.270 203.277 M 236.500 225.621 C 221.650 234.186, 208.844 241.821, 208.043 242.589 C 206.987 243.601, 206.887 244.287, 207.681 245.081 C 208.474 245.874, 216.797 241.566, 237.888 229.445 C 264.279 214.278, 270.373 209.952, 265.250 210.025 C 264.288 210.038, 251.350 217.057, 236.500 225.621 M 192.923 223.923 C 188.741 228.105, 189.099 234, 193.534 234 C 198.144 234, 201.988 225.388, 198.800 222.200 C 197.033 220.433, 196.157 220.690, 192.923 223.923 M 321.300 231.951 C 305.785 238.994, 291.092 254.856, 281.886 274.502 C 276.301 286.420, 274.615 293.712, 274.604 306 C 274.592 318.621, 277.108 325.959, 282.394 328.720 C 287.810 331.549, 296.726 330.810, 304.618 326.876 L 311.391 323.500 311.125 317.250 C 310.910 312.210, 311.153 311, 312.377 311 C 313.504 311, 313.973 312.354, 314.198 316.250 L 314.500 321.500 320.334 316.026 C 328.132 308.708, 334.329 300.292, 339.498 290 C 344.025 280.986, 348 269.436, 348 265.296 L 348 262.802 344.443 264.901 C 340.163 267.427, 337.733 267.607, 338.177 265.367 C 338.355 264.469, 340.839 262.557, 343.697 261.117 L 348.894 258.500 348.947 253.432 C 349.024 246.086, 346.448 238.502, 342.327 233.940 C 338.858 230.101, 338.598 230.001, 332.134 230.022 C 327.784 230.036, 324.054 230.700, 321.300 231.951 M 326.935 254.750 C 321.051 264.964, 315.250 273.778, 313.271 275.509 C 310.673 277.783, 309.606 279.725, 308.910 283.453 C 307.802 289.385, 308.643 290.524, 312.654 288.523 C 317.358 286.176, 319.323 283.387, 319.555 278.731 C 319.722 275.385, 321.892 270.858, 329.929 257.092 C 339.151 241.298, 340.901 237, 338.111 237 C 337.588 237, 332.559 244.988, 326.935 254.750 M 311.200 245.512 C 311.365 248.543, 311.950 251.023, 312.500 251.023 C 313.050 251.023, 313.635 248.543, 313.800 245.512 C 314.045 241.001, 313.809 240, 312.500 240 C 311.191 240, 310.955 241.001, 311.200 245.512 M 227.250 252.771 C 208.548 263.568, 205.446 265.921, 207.909 267.444 C 208.842 268.020, 248.954 245.392, 250.184 243.595 C 251.045 242.338, 250.256 240.987, 248.691 241.040 C 248.036 241.062, 238.387 246.341, 227.250 252.771 M 192.655 244.829 C 191.698 245.886, 190.657 248.339, 190.342 250.279 C 189.869 253.194, 190.141 254.005, 191.912 254.953 C 193.758 255.941, 194.475 255.679, 197.091 253.062 C 199.459 250.694, 200.059 249.306, 199.814 246.763 C 199.559 244.110, 199.023 243.444, 196.948 243.203 C 195.401 243.022, 193.710 243.663, 192.655 244.829 M 192.116 268.580 C 189.651 271.713, 189.354 276.219, 191.495 277.996 C 194.591 280.565, 200.413 274.409, 199.812 269.201 C 199.359 265.280, 194.989 264.927, 192.116 268.580 M 280.250 297.566 C 276.045 300.086, 274.581 303, 277.520 303 C 279.916 303, 287 298.134, 287 296.487 C 287 294.354, 285.103 294.657, 280.250 297.566" stroke="none" fill="black" fill-rule="evenodd"/>
</svg>